<svg width="25" height="25" xmlns="http://www.w3.org/2000/svg">
  <path d="M12.205 2.948c3.173 0 3.55.012 4.8.069a5.09 5.09 0 0 1 3.573 1.3 5.09 5.09 0 0 1 1.3 3.573c.057 1.253.069 1.629.069 4.8 0 3.17-.012 3.55-.07 4.8a5.09 5.09 0 0 1-1.3 3.573 5.09 5.09 0 0 1-3.572 1.3c-1.253.057-1.63.069-4.8.069-3.171 0-3.55-.012-4.8-.07a5.09 5.09 0 0 1-3.573-1.3 5.09 5.09 0 0 1-1.3-3.572c-.057-1.253-.069-1.63-.069-4.8 0-3.171.012-3.55.069-4.8a5.09 5.09 0 0 1 1.3-3.573 5.09 5.09 0 0 1 3.573-1.3c1.253-.057 1.629-.07 4.8-.07Zm0-2.141c-3.228 0-3.633.014-4.9.07a7.1 7.1 0 0 0-4.99 1.924A7.1 7.1 0 0 0 .39 7.79C.334 9.059.32 9.464.32 12.69c0 3.229.014 3.634.07 4.9a7.1 7.1 0 0 0 1.924 4.99 7.1 7.1 0 0 0 4.99 1.926c1.268.057 1.673.07 4.9.07 3.227 0 3.633-.013 4.9-.07a7.1 7.1 0 0 0 4.99-1.923 7.1 7.1 0 0 0 1.923-4.99c.057-1.268.07-1.673.07-4.9 0-3.227-.013-3.633-.07-4.9a7.1 7.1 0 0 0-1.923-4.99A7.1 7.1 0 0 0 17.106.878C15.838.82 15.433.807 12.205.807Z" fill="currentColor" />
  <path d="M12.205 6.59a6.1 6.1 0 1 0 0 12.199 6.1 6.1 0 0 0 0-12.2Zm0 10.064a3.962 3.962 0 1 1 2.799-1.163 3.962 3.962 0 0 1-2.799 1.16v.003ZM18.549 7.773a1.426 1.426 0 1 0 0-2.852 1.426 1.426 0 0 0 0 2.852Z" fill="currentColor" />
</svg>
