<svg width="23" height="18" xmlns="http://www.w3.org/2000/svg">
  <path d="M22.036 2.077c-.825.415-1.65.554-2.613.692.963-.554 1.65-1.384 1.926-2.492-.826.554-1.788.83-2.888 1.108C17.636.554 16.398 0 15.161 0c-2.338 0-4.4 2.077-4.4 4.57 0 .415 0 .692.138.968C7.186 5.4 3.748 3.6 1.549.831c-.413.692-.55 1.384-.55 2.354 0 1.523.825 2.907 2.062 3.738-.687 0-1.375-.277-2.062-.554 0 2.216 1.512 4.016 3.575 4.431-.413.138-.825.138-1.238.138-.275 0-.55 0-.825-.138.55 1.8 2.2 3.185 4.263 3.185-1.513 1.246-3.438 1.938-5.638 1.938h-1.1C2.099 17.17 4.436 18 6.911 18c8.25 0 12.787-6.923 12.787-12.877V4.57c.963-.692 1.788-1.523 2.338-2.492Z" fill="currentColor" />
</svg>
