<svg width="38" height="33" fill="none" xmlns="http://www.w3.org/2000/svg">
  <path fill-rule="evenodd" clip-rule="evenodd" d="M1.704.561H7.56c.94 0 1.704.765 1.704 1.704v28.662c0 .94-.764 1.704-1.704 1.704H1.704C.765 32.631 0 31.867 0 30.927V2.287A1.684 1.684 0 0 1 1.704.561Zm21.453.634L28.86.037c.918-.197 1.835.415 2.054 1.332l6.248 28.073c.196.917-.372 1.835-1.29 2.01l-5.701 1.157c-.918.197-1.835-.415-2.054-1.332L21.868 3.205a1.665 1.665 0 0 1 1.29-2.01Zm.896 4.063L29.755 4.1l.459 2.097-5.702 1.158-.459-2.097Zm.743 3.277 5.702-1.158.24 1.049-5.702 1.158-.24-1.049Zm4.238 19.093 5.702-1.157.48 2.184-5.701 1.158-.481-2.185ZM12.78.561h5.855c.94 0 1.704.765 1.704 1.704v28.662c0 .94-.764 1.704-1.704 1.704H12.78c-.939 0-1.704-.764-1.704-1.704V2.287c0-.961.765-1.726 1.704-1.726Zm0 4.129h5.855v2.141H12.78V4.69Zm0 3.364h5.855v1.07H12.78v-1.07Zm0 19.465h5.855v2.229H12.78v-2.229ZM1.704 4.69H7.56v2.141H1.704V4.69Zm0 3.364H7.56v1.07H1.704v-1.07Zm0 19.465H7.56v2.229H1.704v-2.229Z" fill="#fff"/>
  <path d="M2.551 31.788h.042a.08.08 0 0 0-.01-.03.08.08 0 0 0-.045-.036.1.1 0 0 0-.072.003.088.088 0 0 0-.03.022.098.098 0 0 0-.02.034.123.123 0 0 0 .02.114.09.09 0 0 0 .03.022.104.104 0 0 0 .042.008.098.098 0 0 0 .033-.006.079.079 0 0 0 .045-.042.102.102 0 0 0 .009-.033h-.042a.056.056 0 0 1-.014.032.04.04 0 0 1-.031.012.052.052 0 0 1-.025-.005.05.05 0 0 1-.017-.016.068.068 0 0 1-.01-.02.107.107 0 0 1 0-.05.067.067 0 0 1 .01-.022.045.045 0 0 1 .017-.015.05.05 0 0 1 .053.004.041.041 0 0 1 .015.024Zm.07-.012v.144h.04v-.065l.001-.018a.04.04 0 0 1 .006-.014.032.032 0 0 1 .013-.01.05.05 0 0 1 .026-.003.08.08 0 0 1 .006 0v-.036a.032.032 0 0 0-.008-.002.047.047 0 0 0-.028.01.045.045 0 0 0-.01.009.047.047 0 0 0-.008.012v-.027H2.62Zm.2.057h-.065l.002-.01a.034.034 0 0 1 .005-.01.032.032 0 0 1 .026-.01c.01 0 .017.002.022.007a.045.045 0 0 1 .01.023Zm-.065.025h.104c0-.011 0-.022-.003-.032a.076.076 0 0 0-.013-.027.06.06 0 0 0-.022-.02.075.075 0 0 0-.062-.001.071.071 0 0 0-.038.04.09.09 0 0 0 0 .06.07.07 0 0 0 .015.025.065.065 0 0 0 .023.016c.009.003.019.005.03.005.017 0 .03-.004.042-.011a.066.066 0 0 0 .025-.037h-.034a.026.026 0 0 1-.01.012.036.036 0 0 1-.021.006c-.012 0-.02-.003-.026-.008-.006-.006-.01-.015-.01-.028Zm.126-.037c0-.01.003-.017.007-.023a.048.048 0 0 1 .015-.015.064.064 0 0 1 .021-.008.114.114 0 0 1 .046 0c.008 0 .014.002.02.005a.039.039 0 0 1 .016.013.034.034 0 0 1 .005.02v.075c0 .007 0 .013.002.019 0 .006.002.01.003.013h-.04a.105.105 0 0 1-.002-.007v-.007a.051.051 0 0 1-.023.014.09.09 0 0 1-.045.001.045.045 0 0 1-.016-.008.038.038 0 0 1-.01-.013.047.047 0 0 1-.004-.019c0-.008.002-.015.004-.02a.037.037 0 0 1 .012-.013.049.049 0 0 1 .015-.007.142.142 0 0 1 .035-.006l.016-.002a.028.028 0 0 0 .01-.005c.003-.002.004-.005.004-.01a.02.02 0 0 0-.002-.01.013.013 0 0 0-.006-.005.018.018 0 0 0-.008-.003.05.05 0 0 0-.01-.001.03.03 0 0 0-.018.005c-.004.003-.007.009-.008.017h-.04Zm.09.029a.018.018 0 0 1-.005.003.07.07 0 0 1-.017.004l-.01.001a.072.072 0 0 0-.009.002.025.025 0 0 0-.007.004.017.017 0 0 0-.005.006.02.02 0 0 0-.002.01c0 .003 0 .006.002.008a.015.015 0 0 0 .005.006.023.023 0 0 0 .008.003h.009a.035.035 0 0 0 .018-.003.027.027 0 0 0 .01-.01.029.029 0 0 0 .003-.01v-.024Zm.121-.074v-.043h-.04v.043H3.03v.027h.024v.085c0 .007 0 .013.003.017a.026.026 0 0 0 .01.01c.004.003.009.004.014.005a.11.11 0 0 0 .03.001h.011v-.031a.052.052 0 0 1-.012 0c-.007 0-.011 0-.014-.003-.002-.002-.003-.006-.003-.013v-.071h.029v-.027h-.029Zm-.582.057h-.064c0-.003 0-.006.002-.01a.033.033 0 0 1 .005-.01.032.032 0 0 1 .026-.01c.01 0 .017.002.021.007a.045.045 0 0 1 .01.023Zm-.064.025h.104c0-.011 0-.022-.003-.032a.076.076 0 0 0-.013-.027.06.06 0 0 0-.022-.02.075.075 0 0 0-.062-.001.071.071 0 0 0-.038.04.09.09 0 0 0 0 .06.07.07 0 0 0 .014.025.065.065 0 0 0 .023.016c.01.003.02.005.031.005.016 0 .03-.004.042-.011a.066.066 0 0 0 .025-.037h-.034a.026.026 0 0 1-.011.012.036.036 0 0 1-.02.006c-.012 0-.02-.003-.026-.008-.006-.006-.01-.015-.01-.028Zm.23-.01-.002.017a.048.048 0 0 1-.006.015.03.03 0 0 1-.027.014.03.03 0 0 1-.016-.004.04.04 0 0 1-.01-.01.05.05 0 0 1-.007-.015.072.072 0 0 1 .006-.048.032.032 0 0 1 .01-.01.032.032 0 0 1 .017-.005.03.03 0 0 1 .016.004.038.038 0 0 1 .016.025.085.085 0 0 1 .002.017Zm0 .054v.018h.037v-.198h-.04v.072a.041.041 0 0 0-.018-.016.059.059 0 0 0-.072.017.077.077 0 0 0-.012.024.107.107 0 0 0 0 .057c.003.01.007.017.012.025a.061.061 0 0 0 .02.017.064.064 0 0 0 .029.006c.009 0 .017-.002.025-.005a.041.041 0 0 0 .018-.017Zm.25-.054c0 .006 0 .012-.002.018a.047.047 0 0 1-.006.014.033.033 0 0 1-.01.01.03.03 0 0 1-.016.004.03.03 0 0 1-.015-.003.033.033 0 0 1-.01-.01.046.046 0 0 1-.006-.015.076.076 0 0 1 0-.035.046.046 0 0 1 .006-.015.03.03 0 0 1 .025-.014c.006 0 .011.002.015.004a.03.03 0 0 1 .01.01c.004.005.006.01.007.015a.077.077 0 0 1 .002.017Zm-.106-.126v.198h.038v-.018c.005.008.011.013.02.017a.077.077 0 0 0 .028.005.054.054 0 0 0 .04-.018.069.069 0 0 0 .014-.024.1.1 0 0 0 .005-.034.098.098 0 0 0-.005-.034.068.068 0 0 0-.014-.023.054.054 0 0 0-.04-.018.066.066 0 0 0-.026.005.041.041 0 0 0-.02.016v-.072h-.04Zm.241.216.06-.162h-.04l-.032.099-.033-.099h-.042l.05.135a.024.024 0 0 1 .002.01.02.02 0 0 1-.004.01c-.002.004-.006.006-.011.007H3l-.011-.001v.032H3l.012.002a.057.057 0 0 0 .032-.008.049.049 0 0 0 .017-.025Zm-.6-.136v-.046H2.514l.01.004a.019.019 0 0 1 .007.007.023.023 0 0 1 .002.011c0 .009-.002.015-.007.019a.031.031 0 0 1-.02.005h-.044Zm-.043-.08v.198h.096a.097.097 0 0 0 .026-.003.066.066 0 0 0 .022-.01.05.05 0 0 0 .022-.044.054.054 0 0 0-.01-.032.047.047 0 0 0-.026-.019.048.048 0 0 0 .02-.016.043.043 0 0 0 .007-.025.052.052 0 0 0-.005-.024.036.036 0 0 0-.013-.014.053.053 0 0 0-.02-.009.121.121 0 0 0-.026-.002H2.42Zm.043.164v-.054h.048c.01 0 .017.002.023.006.005.005.008.012.008.022 0 .005 0 .01-.002.013a.022.022 0 0 1-.007.008.035.035 0 0 1-.01.004.06.06 0 0 1-.013.001h-.047Zm.183-.038c0-.005 0-.011.002-.017a.044.044 0 0 1 .006-.014.032.032 0 0 1 .027-.015.03.03 0 0 1 .017.005.029.029 0 0 1 .01.01.04.04 0 0 1 .006.014.086.086 0 0 1 0 .034.044.044 0 0 1-.005.015.029.029 0 0 1-.011.01.033.033 0 0 1-.017.004.033.033 0 0 1-.017-.004.032.032 0 0 1-.01-.01.048.048 0 0 1-.006-.015.087.087 0 0 1-.002-.017Zm-.04 0c0 .012.003.022.006.032a.07.07 0 0 0 .015.024.066.066 0 0 0 .023.015c.01.003.02.005.031.005a.084.084 0 0 0 .03-.005.066.066 0 0 0 .024-.015.07.07 0 0 0 .015-.024.088.088 0 0 0 .006-.032.087.087 0 0 0-.006-.03.066.066 0 0 0-.038-.04.08.08 0 0 0-.03-.005.08.08 0 0 0-.032.005.064.064 0 0 0-.038.04.087.087 0 0 0-.005.03Zm.21 0c0-.005 0-.011.002-.017a.044.044 0 0 1 .005-.014.032.032 0 0 1 .028-.015.03.03 0 0 1 .017.005.029.029 0 0 1 .01.01.04.04 0 0 1 .006.014.086.086 0 0 1 0 .034.044.044 0 0 1-.005.015.029.029 0 0 1-.011.01.033.033 0 0 1-.017.004.033.033 0 0 1-.017-.004.032.032 0 0 1-.01-.01.048.048 0 0 1-.006-.015.087.087 0 0 1-.002-.017Zm-.04 0c0 .012.003.022.006.032a.07.07 0 0 0 .015.024.066.066 0 0 0 .023.015c.01.003.02.005.031.005a.085.085 0 0 0 .03-.005.066.066 0 0 0 .024-.015.07.07 0 0 0 .015-.024.088.088 0 0 0 .006-.032.087.087 0 0 0-.006-.03.066.066 0 0 0-.038-.04.08.08 0 0 0-.031-.005.08.08 0 0 0-.03.005.064.064 0 0 0-.039.04.087.087 0 0 0-.005.03Zm.179-.126v.198h.04v-.05l.015-.014.039.064h.048l-.06-.09.054-.054h-.047l-.05.052v-.106h-.04Zm.14.219v.014h.14v-.014h-.14Zm-.543-.153h.042a.08.08 0 0 0-.01-.03.08.08 0 0 0-.045-.036.1.1 0 0 0-.072.003.088.088 0 0 0-.03.022.098.098 0 0 0-.02.034.123.123 0 0 0 .02.114.09.09 0 0 0 .03.022.104.104 0 0 0 .042.008.098.098 0 0 0 .033-.006.079.079 0 0 0 .045-.042.102.102 0 0 0 .009-.033h-.042a.056.056 0 0 1-.014.032.04.04 0 0 1-.031.012.052.052 0 0 1-.025-.005.05.05 0 0 1-.017-.016.068.068 0 0 1-.01-.02.107.107 0 0 1 0-.05.067.067 0 0 1 .01-.022.045.045 0 0 1 .017-.015.05.05 0 0 1 .053.004.041.041 0 0 1 .015.024Zm.105.06.001-.017a.044.044 0 0 1 .006-.014.032.032 0 0 1 .027-.015.03.03 0 0 1 .017.005.029.029 0 0 1 .01.01.04.04 0 0 1 .007.014.086.086 0 0 1 0 .034.044.044 0 0 1-.006.015.029.029 0 0 1-.01.01.033.033 0 0 1-.018.004.033.033 0 0 1-.016-.004.032.032 0 0 1-.011-.01.048.048 0 0 1-.006-.015.087.087 0 0 1-.001-.017Zm-.04 0c0 .012.002.022.005.032a.07.07 0 0 0 .015.024.066.066 0 0 0 .024.015c.009.003.02.005.03.005a.084.084 0 0 0 .031-.005.066.066 0 0 0 .024-.015.07.07 0 0 0 .015-.024.087.087 0 0 0 .005-.032.087.087 0 0 0-.005-.03.066.066 0 0 0-.039-.04.08.08 0 0 0-.03-.005.08.08 0 0 0-.031.005.064.064 0 0 0-.039.04.087.087 0 0 0-.005.03Zm.176-.126v.198h.04v-.198h-.04Zm.071 0v.198h.04v-.198h-.04Zm.168.11h-.065l.002-.009a.033.033 0 0 1 .005-.01.032.032 0 0 1 .026-.01c.01 0 .017.002.022.007a.045.045 0 0 1 .01.023Zm-.065.026h.104c0-.011 0-.022-.003-.032a.076.076 0 0 0-.012-.027.06.06 0 0 0-.023-.02.075.075 0 0 0-.062-.001.071.071 0 0 0-.038.04.09.09 0 0 0 0 .06.07.07 0 0 0 .015.025.065.065 0 0 0 .023.016c.009.003.019.005.03.005.017 0 .03-.004.042-.011a.066.066 0 0 0 .026-.037h-.035a.026.026 0 0 1-.01.012.036.036 0 0 1-.021.006c-.011 0-.02-.003-.026-.008-.006-.006-.009-.015-.01-.028Zm.225-.031h.039a.052.052 0 0 0-.022-.04.06.06 0 0 0-.021-.011.09.09 0 0 0-.056.002.07.07 0 0 0-.038.041.098.098 0 0 0 .001.061.067.067 0 0 0 .038.038c.009.004.019.006.03.006.019 0 .034-.005.047-.015a.065.065 0 0 0 .022-.044h-.038a.037.037 0 0 1-.01.022c-.005.005-.012.007-.022.007a.028.028 0 0 1-.015-.004.033.033 0 0 1-.01-.01.054.054 0 0 1-.006-.015.076.076 0 0 1 0-.032.047.047 0 0 1 .006-.015.034.034 0 0 1 .01-.011.028.028 0 0 1 .016-.005c.017 0 .027.009.03.025Zm-.726-.05v-.044h-.04v.043h-.024v.027h.024v.085c0 .007.001.013.004.017a.026.026 0 0 0 .01.01c.004.003.009.004.014.005a.11.11 0 0 0 .03.001h.01v-.031a.052.052 0 0 1-.012 0c-.006 0-.01 0-.013-.003-.002-.002-.003-.006-.003-.013v-.071h.029v-.027h-.03Zm.088-.023v-.032h-.04v.032h.04Zm-.04.022v.144h.04v-.144h-.04Zm.106.072c0-.005 0-.011.002-.017a.044.044 0 0 1 .005-.014.032.032 0 0 1 .028-.015.03.03 0 0 1 .016.005.029.029 0 0 1 .011.01.04.04 0 0 1 .006.014.086.086 0 0 1 0 .034.044.044 0 0 1-.006.015.029.029 0 0 1-.01.01.033.033 0 0 1-.017.004.033.033 0 0 1-.017-.004.032.032 0 0 1-.01-.01.048.048 0 0 1-.006-.015.087.087 0 0 1-.002-.017Zm-.04 0c0 .012.002.022.006.032a.07.07 0 0 0 .015.024.066.066 0 0 0 .023.015c.01.003.02.005.03.005a.084.084 0 0 0 .031-.005.066.066 0 0 0 .024-.015.07.07 0 0 0 .015-.024.087.087 0 0 0 .005-.032.087.087 0 0 0-.005-.03.066.066 0 0 0-.039-.04.08.08 0 0 0-.03-.005.08.08 0 0 0-.03.005.064.064 0 0 0-.04.04.087.087 0 0 0-.004.03Zm.175-.072v.144h.04v-.075c0-.015.002-.025.007-.032.004-.006.012-.01.023-.01.01 0 .016.004.02.01a.05.05 0 0 1 .005.026v.081h.04v-.088c0-.01-.001-.017-.003-.024a.044.044 0 0 0-.008-.019.037.037 0 0 0-.016-.012.064.064 0 0 0-.05.001.044.044 0 0 0-.02.019v-.02h-.038Z" fill="#000"/>
  <path d="M2.423 31.864v.117h.04v-.117h.027v-.027h-.027v-.008c0-.006 0-.01.003-.013.002-.002.006-.003.012-.003h.014v-.03h-.02c-.017 0-.029.004-.037.012a.043.043 0 0 0-.012.031v.011H2.4v.027h.023Zm.084-.027v.144h.04v-.065c0-.006 0-.012.002-.018a.04.04 0 0 1 .006-.014.032.032 0 0 1 .012-.01.042.042 0 0 1 .019-.004.066.066 0 0 1 .014.002v-.037a.028.028 0 0 0-.009-.001.047.047 0 0 0-.027.008.045.045 0 0 0-.011.01.046.046 0 0 0-.008.012v-.027h-.038Zm.138.073c0-.006 0-.012.002-.018a.045.045 0 0 1 .006-.014.032.032 0 0 1 .027-.015.03.03 0 0 1 .017.005.029.029 0 0 1 .01.01c.003.004.005.009.006.014a.087.087 0 0 1 0 .034.045.045 0 0 1-.005.015.03.03 0 0 1-.011.01.034.034 0 0 1-.017.004.034.034 0 0 1-.017-.003.033.033 0 0 1-.01-.01.05.05 0 0 1-.006-.016.086.086 0 0 1-.002-.016Zm-.04 0c0 .011.003.021.006.03.004.01.009.018.015.024a.066.066 0 0 0 .023.016c.01.003.02.005.031.005a.082.082 0 0 0 .03-.005.066.066 0 0 0 .024-.015.069.069 0 0 0 .015-.024.087.087 0 0 0 .006-.031.088.088 0 0 0-.006-.032.066.066 0 0 0-.038-.039.08.08 0 0 0-.03-.005.08.08 0 0 0-.032.005.067.067 0 0 0-.038.04.088.088 0 0 0-.005.03Zm.176-.073v.144h.04v-.083a.04.04 0 0 1 .003-.017.028.028 0 0 1 .007-.01.03.03 0 0 1 .016-.006c.007 0 .012 0 .015.003a.016.016 0 0 1 .007.008.033.033 0 0 1 .002.012v.093h.04v-.08a.1.1 0 0 1 0-.013l.005-.012a.023.023 0 0 1 .008-.008.024.024 0 0 1 .013-.003c.006 0 .01 0 .013.003a.019.019 0 0 1 .008.007.03.03 0 0 1 .003.011v.095h.04v-.096a.064.064 0 0 0-.004-.024.04.04 0 0 0-.027-.025.075.075 0 0 0-.022-.002.047.047 0 0 0-.026.007.062.062 0 0 0-.017.017.035.035 0 0 0-.017-.02.056.056 0 0 0-.025-.004.051.051 0 0 0-.044.023v-.02H2.78Zm-.316 0v-.043h-.04v.043h-.024v.027h.024v.085c0 .007.001.013.004.017a.026.026 0 0 0 .01.01.04.04 0 0 0 .014.005.11.11 0 0 0 .03.001h.01v-.031a.051.051 0 0 1-.012 0c-.006 0-.01 0-.013-.003-.002-.002-.003-.006-.003-.013v-.071h.029v-.027h-.03Zm.047-.054v.198h.04v-.075c0-.015.002-.025.007-.032.005-.006.013-.01.023-.01s.016.004.02.01a.05.05 0 0 1 .006.026v.081h.04v-.088c0-.01-.002-.017-.003-.024a.044.044 0 0 0-.008-.019.037.037 0 0 0-.017-.012.065.065 0 0 0-.025-.004.05.05 0 0 0-.042.024h-.001v-.075h-.04Zm.262.11H2.71l.001-.009a.033.033 0 0 1 .006-.01.033.033 0 0 1 .026-.011c.009 0 .016.003.02.008a.045.045 0 0 1 .01.023Zm-.064.026h.103c.001-.011 0-.022-.002-.032a.077.077 0 0 0-.013-.027.06.06 0 0 0-.023-.02.068.068 0 0 0-.031-.006.07.07 0 0 0-.068.046.09.09 0 0 0 0 .06c.003.01.008.017.014.024a.066.066 0 0 0 .023.016c.009.003.02.005.03.005.017 0 .03-.004.042-.011a.066.066 0 0 0 .026-.037h-.035c-.001.004-.005.008-.01.012a.036.036 0 0 1-.021.006c-.011 0-.02-.002-.026-.008-.006-.006-.009-.015-.01-.028Zm-.291-.136v.198h.04v-.133h.001l.083.133h.043v-.198h-.04v.133h-.001l-.083-.133H2.42Zm.237.127.001-.018a.045.045 0 0 1 .006-.014.032.032 0 0 1 .027-.015.03.03 0 0 1 .017.005.029.029 0 0 1 .01.01c.004.004.006.009.007.014a.087.087 0 0 1 0 .034.045.045 0 0 1-.006.015.03.03 0 0 1-.01.01.034.034 0 0 1-.018.004.034.034 0 0 1-.016-.003.033.033 0 0 1-.011-.01.05.05 0 0 1-.006-.016.086.086 0 0 1-.001-.016Zm-.04 0c0 .011.002.021.005.03.004.01.009.018.015.024a.066.066 0 0 0 .024.016c.009.003.02.005.03.005a.082.082 0 0 0 .031-.005.066.066 0 0 0 .024-.015.069.069 0 0 0 .015-.024.087.087 0 0 0 .005-.031.087.087 0 0 0-.005-.032.066.066 0 0 0-.039-.039.08.08 0 0 0-.03-.005.08.08 0 0 0-.031.005.067.067 0 0 0-.039.04.088.088 0 0 0-.005.03Zm.31.071v-.144h-.04v.076c0 .014-.002.025-.007.032-.005.006-.013.009-.024.009-.01 0-.016-.003-.02-.009a.05.05 0 0 1-.005-.026v-.082h-.04v.089c0 .009.001.017.003.024a.049.049 0 0 0 .008.019c.004.005.01.009.016.012a.07.07 0 0 0 .05-.002.045.045 0 0 0 .02-.018v.02h.038Zm-.511-.144v.144h.039v-.075c0-.015.002-.025.007-.032.005-.006.013-.01.024-.01.01 0 .016.004.02.01a.05.05 0 0 1 .005.026v.081h.04v-.088c0-.01-.001-.017-.003-.024a.044.044 0 0 0-.008-.019.037.037 0 0 0-.016-.012.065.065 0 0 0-.05.001.045.045 0 0 0-.02.019v-.02h-.038Zm.047.04v-.06h.049l.012.005a.021.021 0 0 1 .008.01.03.03 0 0 1 .004.014.03.03 0 0 1-.004.016.023.023 0 0 1-.008.009.033.033 0 0 1-.012.004.097.097 0 0 1-.015.001h-.034Zm-.043-.094v.198h.043v-.071h.046a.085.085 0 0 0 .032-.005.061.061 0 0 0 .021-.015.052.052 0 0 0 .012-.02.075.075 0 0 0 0-.047.053.053 0 0 0-.012-.02.056.056 0 0 0-.021-.015.081.081 0 0 0-.032-.005h-.09Zm.181.054v.144h.04v-.065l.001-.018a.04.04 0 0 1 .007-.014.032.032 0 0 1 .012-.01.042.042 0 0 1 .018-.004.066.066 0 0 1 .015.002v-.037a.028.028 0 0 0-.01-.001.047.047 0 0 0-.027.008.045.045 0 0 0-.01.01.046.046 0 0 0-.008.012v-.027H2.6Zm.138.073c0-.006 0-.012.002-.018a.045.045 0 0 1 .005-.014.032.032 0 0 1 .028-.015.03.03 0 0 1 .017.005.029.029 0 0 1 .01.01c.003.004.005.009.006.014a.086.086 0 0 1 0 .034.045.045 0 0 1-.006.015.03.03 0 0 1-.01.01.034.034 0 0 1-.017.004.034.034 0 0 1-.017-.003.033.033 0 0 1-.01-.01.05.05 0 0 1-.006-.016.086.086 0 0 1-.002-.016Zm-.04 0c0 .011.002.021.006.03.003.01.008.018.015.024a.066.066 0 0 0 .023.016c.01.003.02.005.03.005a.082.082 0 0 0 .031-.005.066.066 0 0 0 .024-.015.069.069 0 0 0 .015-.024.087.087 0 0 0 .005-.031.088.088 0 0 0-.005-.032.066.066 0 0 0-.039-.039.08.08 0 0 0-.03-.005.08.08 0 0 0-.03.005.067.067 0 0 0-.039.04.088.088 0 0 0-.005.03Zm.218-.095v-.032h-.04v.032h.04Zm-.063.183v.032l.013.002c.01 0 .018-.001.024-.003a.032.032 0 0 0 .016-.008.027.027 0 0 0 .008-.014.064.064 0 0 0 .002-.019v-.15h-.04v.148c0 .006 0 .009-.004.01a.02.02 0 0 1-.01.003l-.009-.001Zm-.342-.104h-.064c0-.003 0-.006.002-.01a.033.033 0 0 1 .005-.01.033.033 0 0 1 .026-.011c.01 0 .017.003.021.008a.045.045 0 0 1 .01.023Zm-.064.025h.104c0-.011 0-.022-.003-.032a.077.077 0 0 0-.013-.027.06.06 0 0 0-.022-.02.067.067 0 0 0-.032-.006c-.01 0-.021.002-.03.005a.071.071 0 0 0-.038.04.09.09 0 0 0 0 .06c.003.01.008.018.014.025a.066.066 0 0 0 .023.016c.01.003.02.005.031.005.016 0 .03-.004.042-.011a.066.066 0 0 0 .025-.037h-.034c-.002.004-.005.008-.011.012a.036.036 0 0 1-.02.006c-.012 0-.02-.002-.026-.008-.006-.006-.01-.015-.01-.028Zm.225-.03h.039a.053.053 0 0 0-.022-.042.063.063 0 0 0-.021-.01.09.09 0 0 0-.056.002.065.065 0 0 0-.023.017.07.07 0 0 0-.015.025.097.097 0 0 0 .001.06.068.068 0 0 0 .067.044c.02 0 .035-.005.047-.015a.065.065 0 0 0 .023-.044h-.039a.038.038 0 0 1-.01.022c-.004.005-.012.007-.021.007a.028.028 0 0 1-.016-.004.033.033 0 0 1-.01-.01.052.052 0 0 1-.005-.015.078.078 0 0 1 0-.032.047.047 0 0 1 .005-.015.034.034 0 0 1 .011-.011.027.027 0 0 1 .016-.005c.017 0 .026.009.029.025Zm.112-.052v-.043h-.04v.043H2.72v.027h.024v.085c0 .007.002.013.004.017a.026.026 0 0 0 .01.01.04.04 0 0 0 .014.005.11.11 0 0 0 .03.001h.01v-.031a.052.052 0 0 1-.011 0c-.007 0-.012 0-.014-.003-.002-.002-.003-.006-.003-.013v-.071h.029v-.027h-.03Z" fill="#000"/>
</svg>
