<svg width="209" height="35" viewBox="0 0 209 35" fill="none" xmlns="http://www.w3.org/2000/svg">
  <path d="M63.6381 12.2197C64.9489 13.88 65.6043 15.999 65.6043 18.6206C65.6043 21.3295 64.9707 23.5796 63.6818 25.3492C62.3929 27.1405 60.6015 28.0144 58.2858 28.0144C56.844 28.0144 55.6643 27.7304 54.7905 27.1405C54.2662 26.791 53.6982 26.2012 53.0865 25.3492V27.5338H48.5862V4.00555H53.152V12.3944C53.7419 11.5861 54.3754 10.9745 55.0745 10.5375C55.9046 10.0132 56.9532 9.72923 58.2203 9.72923C60.536 9.75107 62.3274 10.5594 63.6381 12.2197ZM59.8369 22.8369C60.4923 21.8975 60.82 20.6304 60.82 19.1012C60.82 17.856 60.6671 16.8292 60.3394 16.0209C59.7277 14.4917 58.5917 13.7271 56.9532 13.7271C55.2929 13.7271 54.1351 14.4698 53.5234 15.9772C53.1957 16.7855 53.0428 17.8123 53.0428 19.0793C53.0428 20.5649 53.3705 21.8101 54.0477 22.7932C54.7249 23.7763 55.7298 24.2569 57.1062 24.2569C58.2421 24.2787 59.1815 23.7981 59.8369 22.8369Z" fill="black"/>
  <path d="M83.2996 25.4365C81.8359 27.2498 79.5858 28.1673 76.5929 28.1673C73.6 28.1673 71.3498 27.2498 69.8861 25.4365C68.4225 23.6233 67.6797 21.4387 67.6797 18.8827C67.6797 16.3704 68.4225 14.1858 69.8861 12.3507C71.3498 10.5157 73.6 9.57629 76.5929 9.57629C79.5858 9.57629 81.8359 10.4938 83.2996 12.3507C84.7633 14.2077 85.5061 16.3704 85.5061 18.8827C85.5279 21.4169 84.7852 23.6233 83.2996 25.4365ZM79.6513 22.9024C80.3723 21.963 80.7218 20.6086 80.7218 18.8609C80.7218 17.1132 80.3723 15.7587 79.6513 14.8194C78.9304 13.88 77.9037 13.3994 76.571 13.3994C75.2384 13.3994 74.2117 13.88 73.4907 14.8194C72.7698 15.7587 72.4203 17.1132 72.4203 18.8609C72.4203 20.6086 72.7698 21.963 73.4907 22.9024C74.2117 23.8418 75.2384 24.3224 76.571 24.3224C77.9255 24.3442 78.9523 23.8636 79.6513 22.9024Z" fill="black"/>
  <path d="M103.332 25.4365C101.869 27.2498 99.6186 28.1673 96.6257 28.1673C93.6327 28.1673 91.3826 27.2498 89.9189 25.4365C88.4552 23.6233 87.7125 21.4387 87.7125 18.8827C87.7125 16.3704 88.4552 14.1858 89.9189 12.3507C91.3826 10.5157 93.6327 9.57629 96.6257 9.57629C99.6186 9.57629 101.869 10.4938 103.332 12.3507C104.796 14.2077 105.539 16.3704 105.539 18.8827C105.539 21.4169 104.796 23.6233 103.332 25.4365ZM99.6841 22.9024C100.405 21.963 100.755 20.6086 100.755 18.8609C100.755 17.1132 100.405 15.7587 99.6841 14.8194C98.9632 13.88 97.9364 13.3994 96.6038 13.3994C95.2712 13.3994 94.2444 13.88 93.5235 14.8194C92.8026 15.7587 92.4531 17.1132 92.4531 18.8609C92.4531 20.6086 92.8026 21.963 93.5235 22.9024C94.2444 23.8418 95.2712 24.3224 96.6038 24.3224C97.9364 24.3442 98.9632 23.8636 99.6841 22.9024Z" fill="black"/>
  <path d="M108.75 4.07111H113.229V16.7855L118.974 10.2099H124.654L118.406 16.6981L124.894 27.5556H119.346L115.129 20.1061L113.25 22.0723V27.5556H108.75V4.07111Z" fill="black"/>
  <path d="M141.694 12.0012C143.114 13.5086 143.835 15.715 143.835 18.6205C143.835 21.7008 143.136 24.0384 141.76 25.655C140.361 27.2716 138.57 28.0799 136.385 28.0799C134.987 28.0799 133.83 27.7304 132.912 27.0313C132.41 26.6381 131.907 26.0919 131.426 25.3491V34.4371H126.904V10.1224H131.274V12.7003C131.776 11.9356 132.3 11.3458 132.846 10.9089C133.873 10.1224 135.075 9.75104 136.495 9.75104C138.526 9.75104 140.274 10.4938 141.694 12.0012ZM138.199 15.2781C137.587 14.2513 136.582 13.727 135.184 13.727C133.524 13.727 132.366 14.5135 131.732 16.0864C131.405 16.9166 131.252 17.9652 131.252 19.2541C131.252 21.2858 131.798 22.7058 132.89 23.5359C133.546 24.0165 134.31 24.2568 135.184 24.2568C136.473 24.2568 137.434 23.7762 138.111 22.7931C138.789 21.8101 139.116 20.4993 139.116 18.8827C139.116 17.5064 138.81 16.3049 138.199 15.2781Z" fill="black"/>
  <path d="M151.7 27.5556H147.134V3.96185H151.7V27.5556Z" fill="black"/>
  <path d="M163.06 16.9602C163.912 16.851 164.523 16.7199 164.873 16.567C165.528 16.283 165.856 15.8679 165.856 15.2781C165.856 14.5572 165.594 14.0766 165.091 13.7926C164.589 13.5304 163.846 13.3775 162.885 13.3775C161.793 13.3775 161.028 13.6396 160.569 14.1858C160.241 14.579 160.023 15.1033 159.914 15.7805H155.523C155.61 14.2513 156.047 13.0061 156.812 12.023C158.013 10.4938 160.11 9.72919 163.038 9.72919C164.96 9.72919 166.664 10.1006 168.15 10.8652C169.635 11.6298 170.378 13.0498 170.378 15.147V23.1427C170.378 23.6888 170.378 24.3661 170.4 25.1525C170.422 25.7424 170.531 26.1574 170.662 26.3759C170.815 26.5944 171.033 26.7691 171.339 26.9002V27.5774H166.38C166.249 27.2279 166.14 26.9002 166.096 26.5944C166.053 26.2885 166.009 25.939 165.965 25.5457C165.332 26.223 164.611 26.8128 163.781 27.2934C162.797 27.8614 161.683 28.1454 160.438 28.1454C158.843 28.1454 157.533 27.6867 156.506 26.791C155.479 25.8953 154.955 24.6064 154.955 22.9679C154.955 20.827 155.785 19.2759 157.445 18.3147C158.363 17.7904 159.695 17.419 161.465 17.2005L163.06 16.9602ZM165.834 19.0793C165.55 19.2541 165.244 19.407 164.96 19.5162C164.654 19.6255 164.261 19.7347 163.737 19.8221L162.688 20.0187C161.705 20.1935 161.006 20.3901 160.591 20.6522C159.87 21.0673 159.521 21.7227 159.521 22.5965C159.521 23.383 159.739 23.9291 160.176 24.2787C160.613 24.6282 161.159 24.803 161.771 24.803C162.776 24.803 163.693 24.519 164.523 23.9291C165.353 23.3393 165.79 22.3125 165.834 20.7833V19.0793Z" fill="black"/>
  <path d="M184.796 16.3704C184.709 15.715 184.491 15.1252 184.141 14.6009C183.617 13.9018 182.83 13.5522 181.76 13.5522C180.231 13.5522 179.16 14.3169 178.592 15.8461C178.286 16.6544 178.133 17.7248 178.133 19.0793C178.133 20.3464 178.286 21.3731 178.592 22.1596C179.138 23.6014 180.165 24.3442 181.672 24.3442C182.743 24.3442 183.507 24.0602 183.944 23.4704C184.403 22.9024 184.665 22.1378 184.753 21.2202H189.406C189.297 22.5965 188.794 23.9291 187.899 25.1525C186.457 27.1405 184.338 28.1454 181.541 28.1454C178.723 28.1454 176.67 27.3153 175.337 25.655C174.004 23.9947 173.349 21.8319 173.349 19.1885C173.349 16.1956 174.07 13.8581 175.534 12.1978C176.997 10.5375 179.007 9.70734 181.585 9.70734C183.77 9.70734 185.561 10.188 186.959 11.171C188.357 12.1541 189.187 13.8799 189.428 16.3704H184.796Z" fill="black"/>
  <path d="M203.955 10.472C205.179 11.0181 206.184 11.8701 206.97 13.0498C207.691 14.0766 208.15 15.2781 208.368 16.6544C208.499 17.4627 208.543 18.5987 208.521 20.1061H195.829C195.894 21.8538 196.506 23.0772 197.642 23.7763C198.341 24.2132 199.171 24.4316 200.154 24.4316C201.203 24.4316 202.033 24.1695 202.688 23.6233C203.038 23.3393 203.366 22.9461 203.628 22.4218H208.281C208.15 23.4486 207.604 24.4972 206.599 25.5676C205.026 27.2716 202.841 28.1018 200.045 28.1018C197.729 28.1018 195.676 27.3809 193.906 25.9609C192.137 24.5409 191.241 22.2033 191.241 18.9701C191.241 15.9554 192.049 13.6397 193.644 12.0231C195.239 10.4065 197.314 9.59814 199.87 9.59814C201.378 9.66368 202.732 9.92584 203.955 10.472ZM197.139 14.4261C196.484 15.0815 196.091 15.999 195.916 17.135H203.781C203.693 15.9335 203.3 15.016 202.557 14.3824C201.814 13.7489 200.919 13.4431 199.848 13.4431C198.69 13.4212 197.773 13.7489 197.139 14.4261Z" fill="black"/>
  <path fill-rule="evenodd" clip-rule="evenodd" d="M1.70445 0.859718H7.5592C8.49858 0.859718 9.2632 1.62433 9.2632 2.56371V31.2258C9.2632 32.1651 8.49858 32.9298 7.5592 32.9298H1.70445C0.76507 32.9298 0.000456719 32.1651 0.000456719 31.2258V2.58556C-0.0213894 1.62433 0.743224 0.859718 1.70445 0.859718ZM23.1573 1.49326L28.8591 0.335412C29.7767 0.138798 30.6942 0.750487 30.9127 1.66802L37.1606 29.7402C37.3572 30.6578 36.7892 31.5753 35.8717 31.7501L30.1699 32.9079C29.2524 33.1045 28.3348 32.4928 28.1164 31.5753L21.8684 3.50309C21.6499 2.58556 22.2398 1.68987 23.1573 1.49326ZM24.053 5.55662L29.7548 4.39878L30.2136 6.49601L24.5118 7.65385L24.053 5.55662ZM24.7958 8.83353L30.4976 7.6757L30.7379 8.7243L25.0361 9.88215L24.7958 8.83353ZM29.0339 27.927L34.7357 26.7692L35.2163 28.9538L29.5145 30.1116L29.0339 27.927ZM12.7804 0.859718H18.6352C19.5745 0.859718 20.3392 1.62433 20.3392 2.56371V31.2258C20.3392 32.1651 19.5745 32.9298 18.6352 32.9298H12.7804C11.841 32.9298 11.0764 32.1651 11.0764 31.2258V2.58556C11.0764 1.62433 11.841 0.859718 12.7804 0.859718ZM12.7804 4.98863H18.6352V7.12954H12.7804V4.98863ZM12.7804 8.35292H18.6352V9.42338H12.7804V8.35292ZM12.7804 27.8178H18.6352V30.0461H12.7804V27.8178ZM1.70445 4.98863H7.5592V7.12954H1.70445V4.98863ZM1.70445 8.35292H7.5592V9.42338H1.70445V8.35292ZM1.70445 27.8178H7.5592V30.0461H1.70445V27.8178Z" fill="#BA3FCA"/>
</svg>
